<svg xmlns="http://www.w3.org/2000/svg" viewBox="0 0 64 64" width="64" height="64">
  <defs>
    <linearGradient id="bg" x1="0" y1="0" x2="0" y2="1">
      <stop offset="0" stop-color="#c9b49d"/>
      <stop offset="1" stop-color="#9c8463"/>
    </linearGradient>
    <linearGradient id="front" x1="0" y1="0" x2="0" y2="1">
      <stop offset="0" stop-color="#ffffff"/>
      <stop offset="1" stop-color="#f5ecda"/>
    </linearGradient>
  </defs>
  <!-- App-icon background (squircle) -->
  <rect width="64" height="64" rx="15" fill="url(#bg)"/>
  <!-- Folder back/lid -->
  <path fill="#fffaf1" fill-opacity="0.6"
        d="M11 22a4.5 4.5 0 0 1 4.5-4.5h9.6a3.5 3.5 0 0 1 2.8 1.4l2.2 2.9a2 2 0 0 0 1.6.8H48.5A4.5 4.5 0 0 1 53 27.1v17.4A4.5 4.5 0 0 1 48.5 49h-33A4.5 4.5 0 0 1 11 44.5z"/>
  <!-- Folder front pocket -->
  <path fill="url(#front)"
        d="M11 30.5h42v14A4.5 4.5 0 0 1 48.5 49h-33A4.5 4.5 0 0 1 11 44.5z"/>
</svg>
